<svg width="16" height="17" viewBox="0 0 16 17" fill="none" xmlns="http://www.w3.org/2000/svg">
<path d="M12.8336 7.70854C12.4799 7.70854 12.1936 7.99485 12.1936 8.34858V12.9128C12.1936 14.176 11.1662 15.2034 9.90306 15.2034L3.58733 15.2032C2.32419 15.2032 1.29683 14.1759 1.29683 12.9127V6.61371C1.29683 5.35054 2.32419 4.32317 3.58733 4.32317H8.1515C8.50524 4.32317 8.79153 4.03687 8.79153 3.68313C8.79153 3.32939 8.50523 3.0431 8.1515 3.0431H3.58733C1.59992 3.0263 0 4.6432 0 6.61365V12.9295C0 14.9 1.59995 16.5 3.58733 16.5H9.90306C11.8736 16.5 13.4904 14.9001 13.4904 12.9126L13.4903 8.36524C13.4735 8.01162 13.1873 7.70854 12.8336 7.70854Z" fill="#0058E9"/>
<path d="M15.3597 0.50003H10.6777C10.3239 0.50003 10.0376 0.786333 10.0376 1.14006C10.0376 1.4938 10.3239 1.7801 10.6777 1.7801H13.8103L7.19139 8.39909C6.93881 8.65168 6.93881 9.05594 7.19139 9.30851C7.30934 9.42647 7.47769 9.49378 7.64615 9.49378C7.81462 9.49378 7.98296 9.42647 8.10091 9.30851L14.7198 2.68952V5.82217C14.7198 6.17592 15.0061 6.46221 15.3598 6.46221C15.7136 6.46221 15.9998 6.17591 15.9998 5.82217L15.9997 1.14003C15.9997 0.786288 15.7134 0.5 15.3597 0.5L15.3597 0.50003Z" fill="#0058E9"/>
</svg>
