<svg width="123" height="32" viewBox="0 0 123 32" fill="none" xmlns="http://www.w3.org/2000/svg">
<path d="M10.5548 1.81092C9.39527 0.651406 7.82264 0 6.18285 0C4.54306 0 2.97043 0.651406 1.81092 1.81092C0.651406 2.97043 0 4.54306 0 6.18285C0 7.82264 0.651406 9.39527 1.81092 10.5548L7.25818 16.0021L1.81092 21.4494C0.687358 22.6161 0.0665412 24.1771 0.0819657 25.7969C0.0973899 27.4165 0.747823 28.9655 1.89339 30.1107C3.03897 31.2558 4.58819 31.9057 6.2079 31.9205C7.82761 31.9353 9.38845 31.3139 10.5548 30.19L16.0021 24.7426V7.25818L10.5548 1.81092Z" fill="#0058E9"/>
<path d="M21.4512 1.81077C22.6179 0.687215 24.179 0.0663992 25.7987 0.0818237C27.4184 0.0972479 28.9674 0.747681 30.1126 1.89326C31.2576 3.03883 31.9075 4.58804 31.9224 6.20776C31.9372 7.82747 31.3157 9.3883 30.1918 10.5546L24.7445 16.0019L30.1918 21.4492C31.3509 22.6083 32.002 24.1803 32.002 25.8195C32.002 27.4586 31.3509 29.0307 30.1918 30.1898C29.0327 31.3489 27.4607 32 25.8215 32C24.1823 32 22.6103 31.3489 21.4512 30.1898L16.0039 24.7425V7.25805L21.4512 1.81077Z" fill="#4D5156"/>
<path d="M16 14.6665C15.4695 14.6665 14.9609 14.8651 14.5856 15.218C14.2107 15.5708 14 16.0497 14 16.549V20.784C14 21.4566 14.3812 22.0779 15 22.4141C15.6188 22.7505 16.3813 22.7505 17 22.4141C17.6187 22.0779 17.9999 21.4565 17.9999 20.784V16.549C17.9999 16.0497 17.7893 15.5708 17.4143 15.218C17.039 14.8651 16.5305 14.6665 15.9999 14.6665H16Z" fill="white"/>
<path d="M17.9999 11.333C17.9999 12.4376 17.1046 13.3332 16 13.3332C14.8953 13.3332 14 12.4376 14 11.333C14 10.2285 14.8953 9.33325 16 9.33325C17.1046 9.33325 17.9999 10.2285 17.9999 11.333Z" fill="white"/>
<path d="M46.3639 24.52H42.668V8.05622H50.6119C51.5078 8.05622 52.3318 8.27222 53.0838 8.70421C53.8518 9.12021 54.4598 9.7042 54.9078 10.4562C55.3558 11.2082 55.5798 12.0482 55.5798 12.9762V13.1202C55.5798 14.0321 55.3558 14.8801 54.9078 15.6641C54.4758 16.4321 53.8758 17.0401 53.1078 17.4881C52.3558 17.9361 51.5238 18.1601 50.6119 18.1601H46.3639V24.52ZM46.3639 15.2561H49.7479C50.3559 15.2561 50.8599 15.0561 51.2599 14.6561C51.6598 14.2401 51.8598 13.7601 51.8598 13.2162V13.0722C51.8598 12.5122 51.6598 12.0322 51.2599 11.6322C50.8759 11.2162 50.3719 11.0082 49.7479 11.0082H46.3639V15.2561Z" fill="#202227"/>
<path d="M65.8387 16.4561C65.8387 15.9601 65.7027 15.5361 65.4307 15.1841C65.1587 14.8161 64.7268 14.6321 64.1348 14.6321C63.5748 14.6321 63.1428 14.8561 62.8388 15.3041C62.5508 15.7361 62.4068 16.2801 62.4068 16.9361V24.52H58.9508V12.2562H61.5428L61.9748 14.0561C62.0388 13.8801 62.1988 13.6321 62.4548 13.3122C62.7268 12.9922 63.1108 12.6962 63.6068 12.4242C64.1188 12.1522 64.7188 12.0162 65.4067 12.0162C66.5107 12.0162 67.3587 12.3602 67.9507 13.0482C68.5587 13.7361 68.8627 14.6481 68.8627 15.7841C68.8627 16.0241 68.8467 16.2641 68.8147 16.5041C68.7987 16.7441 68.7827 16.9121 68.7667 17.0081H65.8387V16.4561Z" fill="#202227"/>
<path d="M83.858 18.7361C83.858 19.9681 83.594 21.04 83.066 21.952C82.554 22.864 81.842 23.56 80.9301 24.04C80.0181 24.52 78.9941 24.76 77.8581 24.76H77.4741C76.3381 24.76 75.3141 24.52 74.4021 24.04C73.4902 23.56 72.7702 22.864 72.2422 21.952C71.7302 21.04 71.4742 19.9681 71.4742 18.7361V18.0401C71.4742 16.8081 71.7302 15.7361 72.2422 14.8241C72.7702 13.9121 73.4902 13.2162 74.4021 12.7362C75.3141 12.2562 76.3381 12.0162 77.4741 12.0162H77.8581C78.9941 12.0162 80.0181 12.2562 80.9301 12.7362C81.842 13.2162 82.554 13.9121 83.066 14.8241C83.594 15.7361 83.858 16.8081 83.858 18.0401V18.7361ZM80.3061 17.4161C80.3061 16.4401 80.0581 15.6961 79.5621 15.1841C79.0821 14.6721 78.4501 14.4161 77.6661 14.4161C76.8821 14.4161 76.2421 14.6721 75.7461 15.1841C75.2661 15.6961 75.0261 16.4401 75.0261 17.4161V19.3601C75.0261 20.3361 75.2661 21.08 75.7461 21.592C76.2421 22.104 76.8821 22.36 77.6661 22.36C78.4501 22.36 79.0821 22.104 79.5621 21.592C80.0581 21.08 80.3061 20.3361 80.3061 19.3601V17.4161Z" fill="#202227"/>
<path d="M87.7968 24.52V7.24023H91.3007V24.52H87.7968Z" fill="#202227"/>
<path d="M95.8091 7.24023H99.3611V10.0002H95.8091V7.24023ZM95.8331 24.52V12.2562H99.3371V24.52H95.8331Z" fill="#202227"/>
<path d="M111.622 24.52L108.718 20.5121L107.35 21.832V24.52H103.846V7.24023H107.35V17.9681L111.646 12.2562H115.606L111.094 18.0161L115.798 24.52H111.622Z" fill="#202227"/>
<path d="M118.632 7.24023H122.184V10.0002H118.632V7.24023ZM118.656 24.52V12.2562H122.16V24.52H118.656Z" fill="#202227"/>
</svg>
