<svg width="21" height="20" viewBox="0 0 21 20" fill="none" xmlns="http://www.w3.org/2000/svg">
<path fill-rule="evenodd" clip-rule="evenodd" d="M17.2177 1.81829C16.2162 1.81829 15.3966 2.63654 15.3966 3.63663C15.3966 3.93975 15.4574 4.21245 15.5787 4.45489C15.8823 5.06091 16.4892 5.45491 17.2175 5.45491C18.219 5.45491 19.0385 4.63665 19.0385 3.63657C19.0385 2.63655 18.2191 1.81823 17.2177 1.81823L17.2177 1.81829ZM13.5756 3.63641C13.5756 1.6363 15.2144 0 17.2175 0C19.2206 0 20.8594 1.6363 20.8594 3.63641C20.8594 5.63652 19.2206 7.27282 17.2175 7.27282C16.1249 7.27282 15.1539 6.78791 14.4862 6.03031L8.05209 9.24246C8.11285 9.48492 8.14312 9.7576 8.14312 10.0001C8.14312 10.2425 8.11285 10.5152 8.05209 10.7577L14.4862 13.9698C15.1539 13.2122 16.1249 12.7273 17.2175 12.7273C19.2206 12.7273 20.8594 14.3636 20.8594 16.3637C20.8594 18.3638 19.2206 20.0001 17.2175 20.0001C15.2144 20.0001 13.5756 18.3638 13.5756 16.3637C13.5756 16.091 13.6059 15.8486 13.6667 15.6061L7.23259 12.394C6.5649 13.1516 5.59383 13.6365 4.50125 13.6365C2.49813 13.6365 0.859375 12.0002 0.859375 10.0001C0.859375 7.99995 2.49813 6.36365 4.50125 6.36365C5.59383 6.36365 6.5649 6.84856 7.23259 7.60616L13.6667 4.39401C13.6061 4.15176 13.5756 3.90931 13.5756 3.63641ZM4.47081 8.18199C3.46928 8.18199 2.64973 9.00025 2.64973 10.0003C2.64973 11.0004 3.46922 11.8187 4.47081 11.8187C5.16879 11.8187 5.80624 11.4247 6.10957 10.8186C6.23087 10.5762 6.29163 10.3035 6.29163 10.0004C6.29163 9.69727 6.23087 9.42456 6.10957 9.18213C5.8062 8.5761 5.19925 8.1821 4.47081 8.1821V8.18199ZM17.2176 14.5458C16.5196 14.5458 15.8821 14.9398 15.5788 15.5458C15.4575 15.7883 15.3967 16.061 15.3967 16.3641C15.3967 17.3641 16.2162 18.1824 17.2178 18.1824C18.2194 18.1824 19.0389 17.3642 19.0389 16.3641C19.0385 15.3641 18.219 14.5457 17.2176 14.5457L17.2176 14.5458Z" fill="#202227"/>
</svg>
