<svg width="28" height="28" viewBox="0 0 28 28" fill="none" xmlns="http://www.w3.org/2000/svg">
<path d="M25.7219 19.9396L25.2187 24.4683C25.1154 25.398 24.3768 26.1157 23.4448 26.0356C20.8255 25.8103 15.3107 24.5767 9.36784 18.6339C3.42504 12.691 2.19056 7.17551 1.96485 4.55563C1.88455 3.62349 2.60235 2.88463 3.53222 2.78131L8.06046 2.27817C8.85312 2.1901 9.62233 2.58137 10.0179 3.27387L11.9084 6.58315C12.3558 7.3662 12.2237 8.35176 11.586 8.98943L10.5364 10.0391C10.0635 10.5119 9.86306 11.192 10.1366 11.8023C10.5117 12.6392 11.2525 13.9189 12.6669 15.3332C14.0812 16.7476 15.3609 17.4883 16.1978 17.8635C16.808 18.137 17.4882 17.9366 17.961 17.4637L19.0107 16.4141C19.6483 15.7764 20.6339 15.6443 21.4169 16.0917L24.7262 17.9822C25.4187 18.3778 25.81 19.147 25.7219 19.9396Z" stroke="#202227" stroke-width="1.5" stroke-linecap="round" stroke-linejoin="round"/>
</svg>
