<svg width="24" height="24" viewBox="0 0 24 24" fill="none" xmlns="http://www.w3.org/2000/svg">
<path d="M2.91095 6.16669H2.94128C4.56878 6.16669 5.58203 5.00002 5.58203 3.54169C5.5517 2.05127 4.56878 0.916687 2.9722 0.916687C1.37561 0.916687 0.332031 2.05127 0.332031 3.54169C0.332031 5.00002 1.3447 6.16669 2.91095 6.16669ZM0.332031 7.91669H5.58203V23.0834H0.332031V7.91669ZM23.6654 13.4584C23.6654 10.3976 21.1845 7.91669 18.1237 7.91669C16.3428 7.91669 14.7625 8.76019 13.7487 10.0657V7.91669H8.4987V23.0834H13.7487V14.3334C13.7487 13.0448 14.7934 12 16.082 12C17.3706 12 18.4154 13.0448 18.4154 14.3334V23.0834H23.6654C23.6654 23.0834 23.6654 14.3071 23.6654 13.4584Z" fill="white"/>
</svg>
