<svg width="22" height="18" viewBox="0 0 22 18" fill="none" xmlns="http://www.w3.org/2000/svg">
<path d="M21.5017 2.25025C20.73 2.59208 19.8999 2.82017 19.0243 2.92808C19.9145 2.39958 20.5993 1.55667 20.9207 0.560917C20.0877 1.04917 19.1649 1.40792 18.1832 1.59692C17.3992 0.765667 16.2809 0.25 15.0419 0.25C12.6619 0.25 10.7328 2.16217 10.7328 4.52C10.7328 4.85367 10.7719 5.17858 10.8454 5.49417C7.26492 5.3145 4.08925 3.61233 1.96475 1.02933C1.59142 1.6605 1.38142 2.39958 1.38142 3.1795C1.38142 4.66175 2.14033 5.96667 3.29767 6.7355C2.59125 6.71392 1.92625 6.51733 1.34408 6.20233C1.34408 6.21517 1.34408 6.23442 1.34408 6.2525C1.34408 8.32392 2.82983 10.0488 4.79917 10.4414C4.43925 10.54 4.05892 10.5948 3.66692 10.5948C3.38867 10.5948 3.11742 10.5633 2.85492 10.5161C3.40325 12.2089 4.994 13.4462 6.87875 13.4829C5.40408 14.6262 3.54675 15.3111 1.52725 15.3111C1.17842 15.3111 0.837167 15.2912 0.5 15.2504C2.40808 16.4585 4.67375 17.1667 7.10567 17.1667C15.0302 17.1667 19.3656 10.659 19.3656 5.0135C19.3656 4.82858 19.3597 4.64425 19.351 4.46225C20.1968 3.86492 20.926 3.11125 21.5017 2.25025Z" fill="white"/>
</svg>
