<svg width="121" height="32" viewBox="0 0 121 32" fill="none" xmlns="http://www.w3.org/2000/svg">
<path fill-rule="evenodd" clip-rule="evenodd" d="M29.7253 2.27413C26.6931 -0.758044 21.777 -0.758041 18.7448 2.27413L15.9997 5.01926L13.2552 2.27479C10.223 -0.75738 5.30692 -0.757382 2.27475 2.27479C-0.757419 5.30696 -0.757416 10.2231 2.27475 13.2552L5.01922 15.9997L2.27413 18.7448C-0.758042 21.777 -0.758044 26.6931 2.27413 29.7253C5.3063 32.7574 10.2224 32.7574 13.2546 29.7253L15.9997 26.9802L18.7454 29.7259C21.7776 32.7581 26.6937 32.7581 29.7259 29.7259C32.7581 26.6938 32.7581 21.7776 29.7259 18.7455L26.9801 15.9997L29.7253 13.2546C32.7574 10.2224 32.7574 5.3063 29.7253 2.27413Z" fill="#0058E9"/>
<path d="M14 15.9997C14 14.8952 14.8954 13.9998 16 13.9998C17.1045 13.9998 17.9999 14.8952 17.9999 15.9997V21.5996C17.9999 22.7042 17.1045 23.5996 16 23.5996C14.8954 23.5996 14 22.7042 14 21.5996V15.9997Z" fill="white"/>
<path d="M17.9999 10.3997C17.9999 11.5042 17.1046 12.3998 16 12.3998C14.8953 12.3998 14 11.5042 14 10.3997C14 9.29515 14.8953 8.3999 16 8.3999C17.1046 8.3999 17.9999 9.29515 17.9999 10.3997Z" fill="white"/>
<path d="M74.671 12.147C76.4744 12.147 78.204 12.8845 79.4792 14.1972C80.7544 15.5099 81.4709 17.2904 81.4709 19.1468C81.4709 21.0033 80.7544 22.7838 79.4792 24.0965C78.204 25.4092 76.4744 26.1467 74.671 26.1467L74.671 22.2968C75.4825 22.2968 76.2608 21.9649 76.8347 21.3742C77.4085 20.7835 77.7309 19.9823 77.7309 19.1468C77.7309 18.3114 77.4085 17.5102 76.8347 16.9195C76.2608 16.3288 75.4825 15.9969 74.671 15.9969L74.671 12.147Z" fill="#0058E9"/>
<path d="M73.4718 12.147C71.6683 12.147 69.9387 12.8845 68.6635 14.1972C67.3883 15.5099 66.6719 17.2904 66.6719 19.1468C66.6719 21.0033 67.3883 22.7838 68.6635 24.0965C69.9387 25.4092 71.6683 26.1467 73.4718 26.1467L73.4718 22.2968C72.6602 22.2968 71.8819 21.9649 71.308 21.3742C70.7342 20.7835 70.4118 19.9823 70.4118 19.1468C70.4118 18.3114 70.7342 17.5102 71.308 16.9195C71.8819 16.3288 72.6602 15.9969 73.4718 15.9969L73.4718 12.147Z" fill="#202227"/>
<path d="M38.3984 26.1477V8.22803H46.1551C47.7593 8.22803 49.1417 8.49256 50.3022 9.02161C51.4628 9.53361 52.3587 10.276 52.9902 11.2488C53.6216 12.2216 53.9374 13.3821 53.9374 14.7303C53.9374 16.0615 53.6216 17.2135 52.9902 18.1863C52.3587 19.159 51.4628 19.91 50.3022 20.439C49.1417 20.951 47.7593 21.207 46.1551 21.207H40.7024L42.5456 19.3382V26.1477H38.3984ZM42.5456 19.799L40.7024 17.8279H45.9247C47.2047 17.8279 48.1604 17.5548 48.7919 17.0087C49.4233 16.4626 49.739 15.7031 49.739 14.7303C49.739 13.7405 49.4233 12.9725 48.7919 12.4264C48.1604 11.8802 47.2047 11.6072 45.9247 11.6072H40.7024L42.5456 9.636V19.799Z" fill="#202227"/>
<path d="M56.5156 26.1475V12.375H60.33V16.2661L59.7924 15.1397C60.202 14.1669 60.859 13.4331 61.7635 12.9382C62.6681 12.4262 63.7688 12.1702 65.0659 12.1702V15.8565C64.8952 15.8394 64.7416 15.8309 64.6051 15.8309C64.4686 15.8138 64.3235 15.8053 64.1699 15.8053C63.0776 15.8053 62.1902 16.121 61.5075 16.7525C60.842 17.3669 60.5092 18.3311 60.5092 19.6452V26.1475H56.5156Z" fill="#202227"/>
<path d="M102.619 23.3305L102.721 18.4666L109.147 12.3739H113.908L107.739 18.6458L105.665 20.3354L102.619 23.3305ZM99.3164 26.1465V7.15161H103.31V26.1465H99.3164ZM109.582 26.1465L104.923 20.361L107.431 17.2634L114.42 26.1465H109.582Z" fill="#202227"/>
<path d="M84.1172 26.1465V7.15161H88.1107V26.1465H84.1172Z" fill="#202227"/>
<path d="M91.7169 26.1469V12.3743H95.7104V26.1469H91.7169ZM93.7136 10.4543C92.9798 10.4543 92.3824 10.241 91.9217 9.81434C91.4609 9.38768 91.2305 8.85862 91.2305 8.22716C91.2305 7.59571 91.4609 7.06665 91.9217 6.63999C92.3824 6.21333 92.9798 6 93.7136 6C94.4475 6 95.0448 6.2048 95.5056 6.61439C95.9664 7.00692 96.1968 7.51891 96.1968 8.15036C96.1968 8.81595 95.9664 9.37061 95.5056 9.81434C95.0619 10.241 94.4645 10.4543 93.7136 10.4543Z" fill="#202227"/>
<path d="M116.115 26.1469V12.3743H120.109V26.1469H116.115ZM118.112 10.4543C117.378 10.4543 116.781 10.241 116.32 9.81434C115.859 9.38768 115.629 8.85862 115.629 8.22716C115.629 7.59571 115.859 7.06665 116.32 6.63999C116.781 6.21333 117.378 6 118.112 6C118.846 6 119.443 6.2048 119.904 6.61439C120.365 7.00692 120.595 7.51891 120.595 8.15036C120.595 8.81595 120.365 9.37061 119.904 9.81434C119.46 10.241 118.863 10.4543 118.112 10.4543Z" fill="#202227"/>
</svg>
