<svg width="48" height="48" viewBox="0 0 48 48" fill="none" xmlns="http://www.w3.org/2000/svg">
<path d="M15.8324 2.71641C14.0931 0.977122 11.7341 0 9.27441 0C6.81468 0 4.4557 0.977122 2.71641 2.71641C0.977122 4.4557 0 6.81468 0 9.27441C0 11.7341 0.977122 14.0931 2.71641 15.8324L10.8874 24.0034L2.71641 32.1745C1.03105 33.9246 0.0998132 36.2662 0.12295 38.6958C0.146087 41.1254 1.12175 43.4489 2.84013 45.1667C4.55851 46.8843 6.88238 47.8592 9.31197 47.8814C11.7416 47.9036 14.0829 46.9715 15.8324 45.2855L24.0034 37.1145V10.8874L15.8324 2.71641Z" fill="#0058E9"/>
<path d="M32.175 2.71619C33.9251 1.03084 36.2667 0.0995984 38.6963 0.122735C41.1259 0.145872 43.4494 1.12154 45.1672 2.83992C46.8848 4.55831 47.8597 6.88215 47.8819 9.31176C47.9041 11.7414 46.972 14.0826 45.286 15.8321L37.115 24.0032L45.286 32.1742C47.0247 33.9129 48.0014 36.2709 48.0014 38.7297C48.0014 41.1885 47.0247 43.5467 45.286 45.2853C43.5473 47.0239 41.1893 48.0007 38.7304 48.0007C36.2716 48.0007 33.9136 47.0239 32.175 45.2853L24.0039 37.1142V10.8872L32.175 2.71619Z" fill="#4D5156"/>
<path d="M24.0001 22C23.2043 22 22.4414 22.2979 21.8785 22.8272C21.316 23.3565 21 24.0749 21 24.8238V31.1764C21 32.1853 21.5719 33.1173 22.5 33.6215C23.4282 34.1262 24.5719 34.1262 25.5 33.6215C26.4282 33.1173 27 32.1852 27 31.1764V24.8238C27 24.0749 26.684 23.3565 26.1215 22.8272C25.5586 22.2979 24.7957 22 23.9999 22H24.0001Z" fill="white"/>
<path d="M27 16.9997C27 18.6566 25.657 20 24 20C22.343 20 21 18.6566 21 16.9997C21 15.3429 22.343 14 24 14C25.657 14 27 15.3429 27 16.9997" fill="white"/>
</svg>
