<svg width="184" height="48" viewBox="0 0 184 48" fill="none" xmlns="http://www.w3.org/2000/svg">
<path d="M15.8323 2.71641C14.0931 0.977122 11.7341 0 9.27441 0C6.81468 0 4.4557 0.977122 2.71641 2.71641C0.977122 4.4557 0 6.81468 0 9.27441C0 11.7341 0.977122 14.0931 2.71641 15.8323L10.8874 24.0034L2.71641 32.1745C1.03105 33.9246 0.0998132 36.2662 0.12295 38.6958C0.146087 41.1254 1.12175 43.4489 2.84013 45.1667C4.55851 46.8843 6.88238 47.8592 9.31197 47.8814C11.7416 47.9036 14.0829 46.9715 15.8323 45.2855L24.0034 37.1145V10.8874L15.8323 2.71641Z" fill="#0058E9"/>
<path d="M32.175 2.71619C33.9251 1.03084 36.2667 0.0995984 38.6963 0.122735C41.1259 0.145872 43.4494 1.12154 45.1672 2.83992C46.8848 4.5583 47.8597 6.88215 47.8819 9.31176C47.9041 11.7414 46.972 14.0826 45.286 15.8321L37.115 24.0032L45.286 32.1742C47.0247 33.9129 48.0014 36.2709 48.0014 38.7297C48.0014 41.1885 47.0247 43.5467 45.286 45.2853C43.5473 47.0239 41.1893 48.0007 38.7304 48.0007C36.2716 48.0007 33.9136 47.0239 32.175 45.2853L24.0039 37.1142V10.8872L32.175 2.71619Z" fill="#4D5156"/>
<path d="M24.0001 22C23.2043 22 22.4414 22.2979 21.8785 22.8272C21.316 23.3565 21 24.0749 21 24.8238V31.1764C21 32.1853 21.5719 33.1173 22.5 33.6215C23.4282 34.1262 24.5719 34.1262 25.5 33.6215C26.4282 33.1173 27 32.1852 27 31.1764V24.8238C27 24.0749 26.684 23.3565 26.1215 22.8272C25.5586 22.2979 24.7957 22 23.9999 22H24.0001Z" fill="white"/>
<path d="M27 16.9997C27 18.6566 25.657 20 24 20C22.343 20 21 18.6566 21 16.9997C21 15.3429 22.343 14 24 14C25.657 14 27 15.3429 27 16.9997Z" fill="white"/>
<path d="M69.544 36.7804H64V12.0844H75.916C77.26 12.0844 78.496 12.4084 79.624 13.0564C80.776 13.6804 81.688 14.5564 82.36 15.6844C83.032 16.8124 83.368 18.0724 83.368 19.4644V19.6804C83.368 21.0484 83.032 22.3204 82.36 23.4964C81.712 24.6484 80.812 25.5604 79.66 26.2324C78.532 26.9044 77.284 27.2404 75.916 27.2404H69.544V36.7804ZM69.544 22.8844H74.62C75.532 22.8844 76.288 22.5844 76.888 21.9844C77.488 21.3604 77.788 20.6404 77.788 19.8244V19.6084C77.788 18.7684 77.488 18.0484 76.888 17.4484C76.312 16.8244 75.556 16.5124 74.62 16.5124H69.544V22.8844Z" fill="#202227"/>
<path d="M98.7566 24.6844C98.7566 23.9404 98.5526 23.3044 98.1446 22.7764C97.7366 22.2244 97.0886 21.9484 96.2006 21.9484C95.3606 21.9484 94.7126 22.2844 94.2566 22.9564C93.8246 23.6044 93.6086 24.4204 93.6086 25.4044V36.7804H88.4246V18.3844H92.3126L92.9606 21.0844C93.0566 20.8204 93.2966 20.4484 93.6806 19.9684C94.0886 19.4884 94.6646 19.0444 95.4086 18.6364C96.1766 18.2284 97.0766 18.0244 98.1086 18.0244C99.7646 18.0244 101.037 18.5404 101.925 19.5724C102.837 20.6044 103.293 21.9724 103.293 23.6764C103.293 24.0364 103.269 24.3964 103.221 24.7564C103.197 25.1164 103.173 25.3684 103.149 25.5124H98.7566V24.6844Z" fill="#202227"/>
<path d="M125.786 28.1044C125.786 29.9524 125.39 31.5604 124.598 32.9284C123.83 34.2964 122.762 35.3404 121.394 36.0604C120.026 36.7804 118.49 37.1404 116.786 37.1404H116.21C114.506 37.1404 112.97 36.7804 111.602 36.0604C110.234 35.3404 109.154 34.2964 108.362 32.9284C107.594 31.5604 107.21 29.9524 107.21 28.1044V27.0604C107.21 25.2124 107.594 23.6044 108.362 22.2364C109.154 20.8684 110.234 19.8244 111.602 19.1044C112.97 18.3844 114.506 18.0244 116.21 18.0244H116.786C118.49 18.0244 120.026 18.3844 121.394 19.1044C122.762 19.8244 123.83 20.8684 124.598 22.2364C125.39 23.6044 125.786 25.2124 125.786 27.0604V28.1044ZM120.458 26.1244C120.458 24.6604 120.086 23.5444 119.342 22.7764C118.622 22.0084 117.674 21.6244 116.498 21.6244C115.322 21.6244 114.362 22.0084 113.618 22.7764C112.898 23.5444 112.538 24.6604 112.538 26.1244V29.0404C112.538 30.5044 112.898 31.6204 113.618 32.3884C114.362 33.1564 115.322 33.5404 116.498 33.5404C117.674 33.5404 118.622 33.1564 119.342 32.3884C120.086 31.6204 120.458 30.5044 120.458 29.0404V26.1244Z" fill="#202227"/>
<path d="M131.694 36.7804V10.8604H136.95V36.7804H131.694Z" fill="#202227"/>
<path d="M143.713 10.8604H149.041V15.0004H143.713V10.8604ZM143.749 36.7804V18.3844H149.005V36.7804H143.749Z" fill="#202227"/>
<path d="M167.432 36.7804L163.076 30.7684L161.024 32.7484V36.7804H155.768V10.8604H161.024V26.9524L167.468 18.3844H173.408L166.64 27.0244L173.696 36.7804H167.432Z" fill="#202227"/>
<path d="M177.947 10.8604H183.275V15.0004H177.947V10.8604ZM177.983 36.7804V18.3844H183.239V36.7804H177.983Z" fill="#202227"/>
</svg>
